<?xml version="1.0" encoding="UTF-8" standalone="no"?>
<!-- Created with Inkscape (http://www.inkscape.org/) -->

<svg
   xmlns:dc="http://purl.org/dc/elements/1.1/"
   xmlns:cc="http://creativecommons.org/ns#"
   xmlns:rdf="http://www.w3.org/1999/02/22-rdf-syntax-ns#"
   xmlns:svg="http://www.w3.org/2000/svg"
   xmlns="http://www.w3.org/2000/svg"
   xmlns:sodipodi="http://sodipodi.sourceforge.net/DTD/sodipodi-0.dtd"
   xmlns:inkscape="http://www.inkscape.org/namespaces/inkscape"
   width="9.4666796mm"
   height="9.5210304mm"
   viewBox="0 0 33.543352 33.735934"
   id="svg4171"
   version="1.1"
   inkscape:version="0.91 r13725"
   sodipodi:docname="arandano2.svg">
  <defs
     id="defs4173" />
  <sodipodi:namedview
     id="base"
     pagecolor="#ffffff"
     bordercolor="#666666"
     borderopacity="1.0"
     inkscape:pageopacity="0.0"
     inkscape:pageshadow="2"
     inkscape:zoom="1.4"
     inkscape:cx="48.962235"
     inkscape:cy="-16.458684"
     inkscape:document-units="px"
     inkscape:current-layer="g4172"
     showgrid="false"
     inkscape:window-width="1920"
     inkscape:window-height="1062"
     inkscape:window-x="0"
     inkscape:window-y="18"
     inkscape:window-maximized="1"
     showborder="true"
     borderlayer="false"
     inkscape:showpageshadow="true"
     fit-margin-top="0"
     fit-margin-left="0"
     fit-margin-right="0"
     fit-margin-bottom="0" />
  <metadata
     id="metadata4176">
    <rdf:RDF>
      <cc:Work
         rdf:about="">
        <dc:format>image/svg+xml</dc:format>
        <dc:type
           rdf:resource="http://purl.org/dc/dcmitype/StillImage" />
        <dc:title></dc:title>
      </cc:Work>
    </rdf:RDF>
  </metadata>
  <g
     inkscape:label="Layer 1"
     inkscape:groupmode="layer"
     id="layer1"
     transform="translate(-233.07685,-30.387122)">
    <g
       style="font-style:normal;font-weight:normal;font-size:40px;line-height:125%;font-family:sans-serif;letter-spacing:0px;word-spacing:0px;fill:#000000;fill-opacity:1;stroke:none;stroke-width:1px;stroke-linecap:butt;stroke-linejoin:miter;stroke-opacity:1"
       id="text4136-2-8-5" />
    <g
       id="g4172">
      <path
         sodipodi:nodetypes="sssssssscssscsssssssc"
         inkscape:connector-curvature="0"
         id="path4171-3-4-7"
         d="m 251.58212,30.458475 c 11.00962,1.47453 17.7522,12.3958 13.9872,22.65573 -1.14839,3.12944 -2.87551,5.37443 -5.93475,7.71427 -2.21554,1.69451 -3.0259,2.05252 -6.2298,2.75229 -3.20389,0.69977 -4.08975,0.71221 -6.81002,0.0957 -5.43329,-1.23133 -9.10507,-3.97475 -11.6634,-8.71449 -3.71526,-6.8832 -1.68322,-16.14675 4.61976,-21.06036 2.82253,-2.20033 8.71639,-3.88711 12.03101,-3.44318 z m -2.56405,8.73466 c 0.43148,2.11475 0.37098,2.3185 -1.35387,4.56299 -1.96536,2.55746 -1.85469,2.78091 1.30514,2.63458 3.11383,-0.14416 3.38963,-0.0204 5.36028,2.40397 l 1.92713,2.3709 0.65842,-3.16212 c 0.64919,-3.11791 0.68802,-3.17624 2.77605,-4.17148 3.30067,-1.5732 3.34123,-1.71669 0.81165,-2.87069 -2.24463,-1.02399 -2.28645,-1.07659 -2.82854,-3.55857 -0.61622,-2.82145 -0.8843,-2.92491 -3.26315,-1.25941 -1.3378,0.93663 -1.4569,0.93854 -3.4775,0.0558 -1.90812,-0.83359 -2.10436,-0.83947 -2.22972,-0.0668 -0.0756,0.46598 0.0658,1.84335 0.31411,3.06083 z"
         style="fill:#453748" />
    </g>
  </g>
</svg>
