<?xml version="1.0" encoding="UTF-8" standalone="no"?>
<!-- Created with Inkscape (http://www.inkscape.org/) -->

<svg
   xmlns:dc="http://purl.org/dc/elements/1.1/"
   xmlns:cc="http://creativecommons.org/ns#"
   xmlns:rdf="http://www.w3.org/1999/02/22-rdf-syntax-ns#"
   xmlns:svg="http://www.w3.org/2000/svg"
   xmlns="http://www.w3.org/2000/svg"
   xmlns:sodipodi="http://sodipodi.sourceforge.net/DTD/sodipodi-0.dtd"
   xmlns:inkscape="http://www.inkscape.org/namespaces/inkscape"
   width="67.035156mm"
   height="12.288397mm"
   viewBox="0 0 237.52614 43.541563"
   id="svg4171"
   version="1.1"
   inkscape:version="0.91 r13725"
   sodipodi:docname="arandano.svg">
  <defs
     id="defs4173" />
  <sodipodi:namedview
     id="base"
     pagecolor="#ffffff"
     bordercolor="#666666"
     borderopacity="1.0"
     inkscape:pageopacity="0.0"
     inkscape:pageshadow="2"
     inkscape:zoom="1.4"
     inkscape:cx="249.37359"
     inkscape:cy="-13.591613"
     inkscape:document-units="px"
     inkscape:current-layer="layer1"
     showgrid="false"
     inkscape:window-width="1920"
     inkscape:window-height="1062"
     inkscape:window-x="0"
     inkscape:window-y="18"
     inkscape:window-maximized="1"
     showborder="true"
     borderlayer="false"
     inkscape:showpageshadow="true"
     fit-margin-top="0"
     fit-margin-left="0"
     fit-margin-right="0"
     fit-margin-bottom="0" />
  <metadata
     id="metadata4176">
    <rdf:RDF>
      <cc:Work
         rdf:about="">
        <dc:format>image/svg+xml</dc:format>
        <dc:type
           rdf:resource="http://purl.org/dc/dcmitype/StillImage" />
        <dc:title></dc:title>
      </cc:Work>
    </rdf:RDF>
  </metadata>
  <g
     inkscape:label="Layer 1"
     inkscape:groupmode="layer"
     id="layer1"
     transform="translate(-32.6655,-23.448563)">
    <g
       style="font-style:normal;font-weight:normal;font-size:40px;line-height:125%;font-family:sans-serif;letter-spacing:0px;word-spacing:0px;fill:#000000;fill-opacity:1;stroke:none;stroke-width:1px;stroke-linecap:butt;stroke-linejoin:miter;stroke-opacity:1"
       id="text4136-2-8-5" />
    <g
       id="g4172">
      <path
         inkscape:connector-curvature="0"
         id="path4163"
         style="font-style:normal;font-variant:normal;font-weight:normal;font-stretch:normal;font-size:40px;line-height:125%;font-family:Geomancy;-inkscape-font-specification:Geomancy;letter-spacing:0px;word-spacing:0px;fill:#453748;fill-opacity:1;stroke:none;stroke-width:1px;stroke-linecap:butt;stroke-linejoin:miter;stroke-opacity:1"
         d="m 163.71633,33.524436 -3.88,-0.04 -8,0 0,28.2 11.88,0 c 7.76,0 14.08,-6.28 14.08,-14.04 0,-7.8 -6.32,-14.12 -14.08,-14.12 z m -3.88,8.32 c 6.32,-0.76 8.84,2.8 8.84,5.8 0,3.64 -2.64,6.56 -8.84,5.8 l 0,-11.6 z" />
      <path
         inkscape:connector-curvature="0"
         id="path4165"
         style="font-style:normal;font-variant:normal;font-weight:normal;font-stretch:normal;font-size:40px;line-height:125%;font-family:Geomancy;-inkscape-font-specification:Geomancy;letter-spacing:0px;word-spacing:0px;fill:#453748;fill-opacity:1;stroke:none;stroke-width:1px;stroke-linecap:butt;stroke-linejoin:miter;stroke-opacity:1"
         d="m 197.58071,61.684436 8.72,0 -15.56,-30.16 -14.92,30.16 8.68,0 2.08,-4.44 8.96,0 2.04,4.44 z m -8.48,-12.04 1.64,-3.72 1.6,3.72 -3.24,0 z" />
      <path
         inkscape:connector-curvature="0"
         id="path4167"
         style="font-style:normal;font-variant:normal;font-weight:normal;font-stretch:normal;font-size:40px;line-height:125%;font-family:Geomancy;-inkscape-font-specification:Geomancy;letter-spacing:0px;word-spacing:0px;fill:#453748;fill-opacity:1;stroke:none;stroke-width:1px;stroke-linecap:butt;stroke-linejoin:miter;stroke-opacity:1"
         d="m 234.54196,33.484436 -8,0 -0.08,12.76 -17.36,-16.08 0,31.52 8,0 0,-11.76 17.44,16.28 0,-32.72 z" />
      <path
         id="path4179"
         style="font-style:normal;font-variant:normal;font-weight:normal;font-stretch:normal;font-size:40px;line-height:125%;font-family:Geomancy;-inkscape-font-specification:Geomancy;letter-spacing:0px;word-spacing:0px;fill:#453748;fill-opacity:1;stroke:none;stroke-width:1px;stroke-linecap:butt;stroke-linejoin:miter;stroke-opacity:1"
         d="m 54.4255,62.470126 8.72,0 -15.56,-30.16 -14.92,30.16 8.68,0 2.08,-4.44 8.96,0 2.04,4.44 z m -8.48,-12.04 1.64,-3.72 1.6,3.72 -3.24,0 z"
         inkscape:connector-curvature="0" />
      <path
         id="path4181"
         style="font-style:normal;font-variant:normal;font-weight:normal;font-stretch:normal;font-size:40px;line-height:125%;font-family:Geomancy;-inkscape-font-specification:Geomancy;letter-spacing:0px;word-spacing:0px;fill:#453748;fill-opacity:1;stroke:none;stroke-width:1px;stroke-linecap:butt;stroke-linejoin:miter;stroke-opacity:1"
         d="m 88.14675,56.670126 c 0,0 -1.88,-0.16 -3.44,-0.88 -1.52,-0.72 -2.16,-1.44 -2.16,-1.44 1.64,-0.4 5.8,-3.4 5.8,-9.12 0,-7.08 -6.04,-10.96 -13.12,-10.96 l -9.28,0 0,28.2 8,0 0,-5.68 c 2.44,3.52 6.84,6.4 11.2,6.6 l 3,-6.72 z m -14.2,-13.88 c 2.44,-0.6 5.36,0.8 5.36,3.16 0,2.6 -2.52,4.12 -5.36,3.36 l 0,-6.52 z"
         inkscape:connector-curvature="0" />
      <path
         sodipodi:nodetypes="cccccccccccc"
         inkscape:connector-curvature="0"
         id="path4183"
         style="font-style:normal;font-variant:normal;font-weight:normal;font-stretch:normal;font-size:40px;line-height:125%;font-family:Geomancy;-inkscape-font-specification:Geomancy;letter-spacing:0px;word-spacing:0px;fill:#453748;fill-opacity:1;stroke:none;stroke-width:1px;stroke-linecap:butt;stroke-linejoin:miter;stroke-opacity:1"
         d="m 110.51925,62.470126 8.72,0 -15.56,-30.16 -14.92,30.16 8.68,0 2.08,-4.44 8.96,0 z m -8.48,-12.04 1.64,-3.72 1.6,3.72 z" />
      <path
         id="path4185"
         style="font-style:normal;font-variant:normal;font-weight:normal;font-stretch:normal;font-size:40px;line-height:125%;font-family:Geomancy;-inkscape-font-specification:Geomancy;letter-spacing:0px;word-spacing:0px;fill:#453748;fill-opacity:1;stroke:none;stroke-width:1px;stroke-linecap:butt;stroke-linejoin:miter;stroke-opacity:1"
         d="m 147.4805,34.270126 -8,0 -0.08,12.76 -17.36,-16.08 0,31.52 8,0 0,-11.76 17.44,16.28 0,-32.72 z"
         inkscape:connector-curvature="0" />
      <path
         sodipodi:nodetypes="ccccc"
         inkscape:connector-curvature="0"
         id="path4183-3"
         style="font-style:normal;font-variant:normal;font-weight:normal;font-stretch:normal;font-size:40px;line-height:125%;font-family:Geomancy;-inkscape-font-specification:Geomancy;letter-spacing:0px;word-spacing:0px;fill:#453748;fill-opacity:1;stroke:none;stroke-width:1px;stroke-linecap:butt;stroke-linejoin:miter;stroke-opacity:1"
         d="m 96.17695,35.271276 12.2101,-7.52883 c 0,0 0.32985,-1.51656 -1.81823,-3.20096 -2.10911,-1.60614 -2.64163,-0.96768 -2.64163,-0.96768 z" />
      <path
         sodipodi:nodetypes="sssssssscssscsssssssc"
         inkscape:connector-curvature="0"
         id="path4171-3-4-7"
         d="m 255.15355,31.887046 c 11.00962,1.47453 17.7522,12.3958 13.9872,22.65573 -1.14839,3.12944 -2.87551,5.37443 -5.93475,7.71427 -2.21554,1.69451 -3.0259,2.05252 -6.2298,2.75229 -3.20389,0.69977 -4.08975,0.71221 -6.81002,0.0957 -5.43329,-1.23133 -9.10507,-3.97475 -11.6634,-8.71449 -3.71526,-6.8832 -1.68322,-16.14675 4.61976,-21.06036 2.82253,-2.20033 8.71639,-3.88711 12.03101,-3.44318 z m -2.56405,8.73466 c 0.43148,2.11475 0.37098,2.3185 -1.35387,4.56299 -1.96536,2.55746 -1.85469,2.78091 1.30514,2.63458 3.11383,-0.14416 3.38963,-0.0204 5.36028,2.40397 l 1.92713,2.3709 0.65842,-3.16212 c 0.64919,-3.11791 0.68802,-3.17624 2.77605,-4.17148 3.30067,-1.5732 3.34123,-1.71669 0.81165,-2.87069 -2.24463,-1.02399 -2.28645,-1.07659 -2.82854,-3.55857 -0.61622,-2.82145 -0.8843,-2.92491 -3.26315,-1.25941 -1.3378,0.93663 -1.4569,0.93854 -3.4775,0.0558 -1.90812,-0.83359 -2.10436,-0.83947 -2.22972,-0.0668 -0.0756,0.46598 0.0658,1.84335 0.31411,3.06083 z"
         style="fill:#453748" />
    </g>
  </g>
</svg>
